<?xml version="1.0" encoding="iso-8859-1"?>
<!-- Generator: Adobe Illustrator 17.1.0, SVG Export Plug-In . SVG Version: 6.00 Build 0)  -->
<!DOCTYPE svg PUBLIC "-//W3C//DTD SVG 1.1//EN" "http://www.w3.org/Graphics/SVG/1.1/DTD/svg11.dtd">
<svg version="1.1" id="Capa_1" xmlns="http://www.w3.org/2000/svg" xmlns:xlink="http://www.w3.org/1999/xlink" x="0px" y="0px"
	 viewBox="0 0 388.332 388.332" style="enable-background:new 0 0 388.332 388.332;" xml:space="preserve">
<path d="M376.084,213.503c-0.14-2.823-1.082-5.709-2.821-8.382l-50.673-77.986c-0.234-0.448-0.51-0.87-0.821-1.263l-46.925-72.217
	c-3.217-4.943-8.146-7.708-13.395-7.547c-5.32,0.147-10.07,3.187-13.039,8.352l-24.594,42.925L167.019,7.811
	C163.87,2.847,159.022,0,153.715,0c-5.282,0-10.103,2.824-13.228,7.75L15.374,205.125c-2.75,5.331-3.339,12.659-3.339,12.659
	c-0.067,22.447-0.273,90.759,42.847,134.01c24.171,24.244,57.808,36.537,99.974,36.537c116.415,0,142.231-79.909,150.715-106.168
	c0.04-0.122,0.079-0.244,0.118-0.365c3.989,0.786,7.953,0.864,11.719,0.864c18.506,0,33.891-7.097,44.493-20.523
	c9.422-11.932,14.401-28.033,14.401-46.564C376.302,214.864,376.225,214.172,376.084,213.503z M293.754,208.332
	c-0.423-1.089-0.96-2.163-1.621-3.206l-42.249-66.63c4.432-0.766,7.248-2.697,9.251-4.079c1.812-1.25,2.299-1.585,4.157-1.585
	c1.859,0,2.347,0.336,4.159,1.586c2.55,1.758,6.401,4.414,13.242,4.414c6.842,0,10.693-2.656,13.242-4.414
	c1.813-1.25,2.301-1.586,4.16-1.586c1.86,0,2.348,0.336,4.161,1.586c0.62,0.427,1.319,0.908,2.117,1.391l47.123,72.523H293.754z
	 M262.116,70.771l30.368,46.736c-3.519,0.904-5.881,2.532-7.629,3.738c-1.813,1.25-2.301,1.586-4.16,1.586s-2.346-0.336-4.158-1.586
	c-2.55-1.758-6.401-4.414-13.243-4.414c-6.841,0-10.692,2.656-13.241,4.414c-1.813,1.25-2.299,1.586-4.158,1.586
	c-1.856,0-2.343-0.336-4.153-1.585c-1.161-0.8-2.596-1.786-4.456-2.623l-1.358-2.141L262.116,70.771z M153.735,24.208l42.003,66.242
	c-2.46-0.914-5.551-1.618-9.64-1.618c-7.44,0-11.586,2.325-14.613,4.022c-2.275,1.275-3.528,1.978-6.789,1.978
	c-3.26,0-4.513-0.703-6.786-1.978c-3.027-1.698-7.173-4.022-14.612-4.022s-11.585,2.325-14.612,4.022
	c-2.274,1.275-3.526,1.978-6.786,1.978s-4.512-0.703-6.786-1.978c-1.061-0.595-2.265-1.266-3.694-1.888L153.735,24.208z
	 M102.551,104.955c1.87,0.252,3.01,0.888,4.735,1.854c3.027,1.698,7.173,4.022,14.612,4.022s11.585-2.325,14.612-4.022
	c2.273-1.275,3.526-1.978,6.786-1.978s4.512,0.703,6.786,1.978c3.027,1.698,7.173,4.022,14.612,4.022
	c7.44,0,11.586-2.325,14.613-4.022c2.275-1.275,3.528-1.978,6.789-1.978s4.514,0.703,6.789,1.978
	c3.027,1.697,7.173,4.022,14.613,4.022c0.377,0,0.744-0.035,1.107-0.085l61.877,97.585H37.022L102.551,104.955z M317.408,262.663
	c-3.348,0-6.552-0.058-8.973-0.755c-10.323-2.976-18.314,3.263-20.869,10.959c-0.318,0.957-0.658,2.01-1.026,3.148
	c-1.637,5.067-3.821,11.819-7.084,19.374c-0.9,0.862-1.614,1.943-2.042,3.205c-2.531,7.475-8.778,12.497-15.546,12.497
	c-6.767,0-13.014-5.022-15.545-12.497c-1.12-3.307-4.19-5.393-7.494-5.427c-0.062-0.002-0.124-0.004-0.185-0.005
	c-0.062,0.001-0.123,0.002-0.185,0.005c-3.304,0.034-6.374,2.12-7.494,5.427c-2.531,7.475-8.778,12.497-15.546,12.497
	c-6.767,0-13.014-5.022-15.545-12.497c-1.12-3.307-4.19-5.393-7.494-5.427c-0.062-0.002-0.123-0.004-0.185-0.005
	c-0.062,0.001-0.123,0.002-0.185,0.005c-3.304,0.034-6.374,2.12-7.494,5.427c-2.531,7.475-8.778,12.497-15.545,12.497
	c-6.768,0-13.015-5.022-15.546-12.497c-1.417-4.186-5.957-6.429-10.143-5.012s-6.429,5.958-5.012,10.143
	c4.731,13.977,17.069,23.366,30.7,23.366c8.876,0,17.188-4,23.224-10.636c6.036,6.637,14.349,10.636,23.224,10.636
	c8.876,0,17.189-3.999,23.225-10.636c5.617,6.176,13.206,10.049,21.387,10.558c-18.758,21.884-50.344,41.319-105.174,41.319
	c-36.657,0-65.528-10.315-85.811-30.658c-17.854-17.908-27.106-41.484-31.898-63.43c2.596,0.683,5.348,1.054,8.252,1.054
	c8.876,0,17.189-3.999,23.225-10.636c6.036,6.637,14.348,10.636,23.224,10.636s17.189-3.999,23.225-10.636
	c6.036,6.637,14.348,10.636,23.224,10.636c8.877,0,17.189-3.999,23.225-10.636c6.036,6.637,14.348,10.636,23.224,10.636
	c13.631,0,25.968-9.39,30.699-23.365c1.417-4.185-0.826-8.726-5.012-10.143c-4.185-1.417-8.726,0.826-10.143,5.012
	c-2.531,7.475-8.778,12.496-15.545,12.496s-13.014-5.021-15.545-12.496c-1.121-3.312-4.199-5.4-7.508-5.428
	c-0.052-0.002-0.105-0.003-0.157-0.004c-0.071,0.001-0.143,0.003-0.214,0.005c-3.299,0.041-6.363,2.125-7.481,5.427
	c-2.529,7.475-8.776,12.496-15.544,12.496c-6.767,0-13.014-5.021-15.545-12.496c-1.121-3.31-4.195-5.397-7.502-5.428
	c-0.057-0.002-0.113-0.003-0.17-0.004c-0.067,0.001-0.133,0.002-0.2,0.005c-3.302,0.037-6.368,2.122-7.487,5.427
	c-2.531,7.475-8.778,12.496-15.546,12.496c-6.767,0-13.014-5.021-15.545-12.496c-1.121-3.31-4.195-5.397-7.502-5.428
	c-0.057-0.002-0.113-0.003-0.17-0.004c-0.067,0.001-0.133,0.002-0.2,0.005c-3.302,0.037-6.368,2.122-7.487,5.427
	c-2.531,7.475-8.778,12.496-15.546,12.496c-3.542,0-8.268-0.74-11.702-6.114c-1.073-9.437-1.463-17.972-1.599-24.852h323.066
	C352.533,243.055,344.031,262.663,317.408,262.663z"/>
<g>
</g>
<g>
</g>
<g>
</g>
<g>
</g>
<g>
</g>
<g>
</g>
<g>
</g>
<g>
</g>
<g>
</g>
<g>
</g>
<g>
</g>
<g>
</g>
<g>
</g>
<g>
</g>
<g>
</g>
</svg>
